<svg xmlns="http://www.w3.org/2000/svg" xmlns:xlink="http://www.w3.org/1999/xlink" version="1.1" x="0px" y="0px" enable-background="new 402.7 248.8 62.4 62.4" xml:space="preserve" viewBox="402.7 248.8 62.4 62.4"><g><path fill="#ffffff" d="M412.6 267c3.3 0 6.4 1 8.8 2.7l-0.9-2.3h9.5l3.2 11.4l0.7 2.6c0 0 0.4-1.3 0.7-2.6l3.3-11.4h9.5l-0.8 2.4 c2.4-1.8 5.5-2.7 8.8-2.7c0.5 0 0.9 0 1.4 0.1l-4.9-18.4L402.7 262l1.9 7.2C406.9 267.8 409.6 267 412.6 267z"></path><path fill="#ffffff" d="M455.4 275.3c-2.9 0-4.7 2.2-4.7 4.9c0 2.9 1.9 4.8 4.7 4.8s4.7-2 4.7-4.8c0-0.4 0-0.8-0.1-1.1l-0.2-0.6 C459.2 276.6 457.6 275.3 455.4 275.3z"></path><path fill="#ffffff" d="M417.2 280.1c0-2.7-1.8-4.9-4.7-4.9s-4.7 2.2-4.7 4.9c0 2.9 1.9 4.8 4.7 4.8 C415.3 285 417.2 283 417.2 280.1z"></path><path fill="#ffffff" d="M455.4 292.9c-6.9 0-12.6-3.9-13.7-10.5l-3.9 10.1h-7.7l-3.9-10.1c-1.1 6.6-6.8 10.5-13.7 10.5 c-0.5 0-1.1 0-1.6-0.1l4.9 18.4L465 298l-1.9-7.1C461 292.2 458.3 292.9 455.4 292.9z"></path></g></svg>